# xmcd CD database file
#
# Track frame offsets:
#	150
#	17714
#	31076
#	51956
#	67162
#	82409
#	98168
#	112763
#	126031
#	137698
#	155983
#	175135
#
# Disc length: 2508 seconds
#
# Revision: 0
# Processed by: cddbd v1.5.2PL0 Copyright (c) Steve Scherf et al.
# Submitted via: CDex 1.70beta2
#
DISCID=a309ca0c
DTITLE=Swiss Blues Authority - Various 2 feat. Polo Hofer and Friends
DYEAR=2000
DGENRE=Blues
TTITLE0=Tupelo Honey
TTITLE1=Blind Side
TTITLE2=Bring It On Home
TTITLE3=Why Get Up
TTITLE4=Leap Of Faith
TTITLE5=It Takes A Lot To Laugh
TTITLE6=Under Suspicion
TTITLE7=Shaky Ground
TTITLE8=Scuttle Buttin
TTITLE9=Beast Of Burden
TTITLE10=I Ain't Waiting No More
TTITLE11=Instrumental In C
EXTD=YEAR: 2000
EXTT0=
EXTT1=
EXTT2=
EXTT3=
EXTT4=
EXTT5=
EXTT6=
EXTT7=
EXTT8=
EXTT9=
EXTT10=
EXTT11=
PLAYORDER=
